<?xml version="1.0" encoding="UTF-8" standalone="no"?><!DOCTYPE svg PUBLIC "-//W3C//DTD SVG 1.1//EN" "http://www.w3.org/Graphics/SVG/1.1/DTD/svg11.dtd"><svg width="100%" height="100%" viewBox="0 0 666 341" version="1.1" xmlns="http://www.w3.org/2000/svg" xmlns:xlink="http://www.w3.org/1999/xlink" xml:space="preserve" xmlns:serif="http://www.serif.com/" style="fill-rule:evenodd;clip-rule:evenodd;stroke-linejoin:round;stroke-miterlimit:2;"><circle id="path3817-5-6-2-9-6" cx="416.25" cy="257.917" r="82.917" style="fill:#696969;"/><g id="text4665-5-4"><path id="path4740" d="M393.333,227.833l8.75,0l14.583,22.167l15,-22.083l8.75,0l-19.167,28.333l20.417,30.833l-8.75,0l-16.667,-25.417l-16.667,25.417l-8.75,0l21.25,-31.667l-18.75,-27.583Z" style="fill:#da3e3e;fill-rule:nonzero;"/></g><circle id="path3817-5-6-2-9-1-1" cx="582.917" cy="257.917" r="82.917" style="fill:#696969;"/><g id="text4665-3"><path id="path4743" d="M557.917,227.833l8.75,0l16.667,24.583l16.25,-24.583l8.75,0l-20.833,31.25l0,28.417l-7.917,0l0,-28.333l-21.667,-31.333Z" style="fill:#da3e3e;fill-rule:nonzero;"/></g><circle id="path3817-5-6-2-9-1-1-2" cx="582.917" cy="82.917" r="82.917"/><g id="text4665-3-2"><path id="path4743-2" d="M557.917,53.25l8.75,0l16.667,24.583l16.25,-24.583l8.75,0l-20.833,31.25l0,28.333l-7.917,0l0,-28.333l-21.667,-31.25Z" style="fill:#da0000;fill-rule:nonzero;"/></g><g id="g4873"><circle id="path3817-5-6-2-9-6-2" cx="416.25" cy="82.917" r="82.5"/><g id="text4665-5-4-2"><path id="path4740-2" d="M393.833,53.292l8.667,0l14.792,21.708l14.75,-21.917l8.667,0l-19.375,28.542l20.333,31.208l-8.625,0l-16.667,-25.5l-16.667,25.5l-8.625,0l21.417,-31.583l-18.667,-27.958Z" style="fill:#d00;fill-rule:nonzero;"/></g></g><g id="g4878"><circle id="path3817-5-6-2-3" cx="82.917" cy="82.917" r="82.5"/><g id="text4665-5"><path id="path4737" d="M82.917,60.958l-10.708,29.542l21.917,0l-11.208,-29.542Zm-4.583,-7.667l9.167,0l22.917,59.625l-8.333,0l-5.417,-15.292l-27,0l-5.583,15.292l-8.667,0l22.917,-59.625Z" style="fill:#d50000;fill-rule:nonzero;"/></g></g><circle id="path3817-5-6-2-3-2" cx="82.917" cy="257.917" r="82.917" style="fill:#696969;"/><g id="text4665-5-2"><path id="path4737-2" d="M82.917,235.833l-10.833,29.583l21.667,0l-10.833,-29.583Zm-4.583,-7.917l9.167,0l22.5,59.583l-8.333,0l-5.417,-15.417l-26.667,0l-5.417,15.417l-8.333,0l22.5,-59.583Z" style="fill:#da3e3e;fill-rule:nonzero;"/></g><g id="g4883"><circle id="path3817-5-6-7" cx="249.583" cy="82.917" r="82.5"/><g id="text4665-54"><path id="path4734" d="M236.875,84.375l0,21.917l12.5,0c3.416,0.129 6.794,-0.756 9.708,-2.542c2.17,-2.206 3.28,-5.248 3.042,-8.333c0.328,-3.096 -0.796,-6.176 -3.042,-8.333c-2.879,-1.866 -6.284,-2.757 -9.708,-2.542l-12.5,0l0,-0.167Zm0,-24.458l0,17.833l11.583,0c3.036,0.319 6.092,-0.401 8.667,-2.042c2.089,-1.532 3.241,-4.042 3.042,-6.625c0.17,-2.503 -0.927,-4.931 -2.917,-6.458c-2.6,-1.697 -5.701,-2.461 -8.792,-2.167l-11.583,-0l0,-0.542Zm-8.333,-6.625l20.375,0c5.113,-0.419 10.205,1.066 14.292,4.167c3.383,2.486 5.296,6.515 5.083,10.708c0.071,3.082 -0.817,6.111 -2.542,8.667c-1.89,2.363 -4.656,3.866 -7.667,4.167c3.535,0.629 6.761,2.418 9.167,5.083c2.128,2.802 3.271,6.231 3.25,9.75c0.156,4.809 -1.922,9.428 -5.625,12.5c-4.372,3.331 -9.809,4.96 -15.292,4.583l-21.375,0l0.333,-59.625Z" style="fill:#d00;fill-rule:nonzero;"/></g></g><circle id="path3817-5-6-7-2" cx="249.583" cy="257.917" r="82.917" style="fill:#696969;"/><g id="text4665-54-2"><path id="path4734-2" d="M236.667,259.083l0,21.667l12.917,0c3.382,0.25 6.754,-0.63 9.583,-2.5c2.321,-2.124 3.549,-5.195 3.333,-8.333c0.129,-3.125 -1.085,-6.16 -3.333,-8.333c-2.829,-1.87 -6.201,-2.75 -9.583,-2.5l-12.917,0Zm0,-24.583l0,18l12.083,0c3.051,0.11 6.076,-0.61 8.75,-2.083c2.018,-1.598 3.113,-4.1 2.917,-6.667c0.285,-2.58 -0.828,-5.125 -2.917,-6.667c-2.591,-1.677 -5.681,-2.413 -8.75,-2.083l-12.083,0l0,-0.5Zm-8.333,-6.667l20.833,0c5.004,-0.328 9.98,0.989 14.167,3.75c3.332,2.577 5.201,6.626 5,10.833c0.194,3.116 -0.689,6.207 -2.5,8.75c-1.968,2.182 -4.608,3.648 -7.5,4.167c3.635,0.622 6.907,2.586 9.167,5.5c2.264,2.83 3.446,6.377 3.333,10c0.342,4.797 -1.683,9.469 -5.417,12.5c-4.526,3.077 -9.957,4.545 -15.417,4.167l-21.667,0l0,-59.667Z" style="fill:#da3e3e;fill-rule:nonzero;"/></g></svg>