<?xml version="1.0" encoding="UTF-8" standalone="no"?><!DOCTYPE svg PUBLIC "-//W3C//DTD SVG 1.1//EN" "http://www.w3.org/Graphics/SVG/1.1/DTD/svg11.dtd"><svg width="100%" height="100%" viewBox="0 0 9550 7263" version="1.1" xmlns="http://www.w3.org/2000/svg" xmlns:xlink="http://www.w3.org/1999/xlink" xml:space="preserve" xmlns:serif="http://www.serif.com/" style="fill-rule:evenodd;clip-rule:evenodd;stroke-linejoin:round;stroke-miterlimit:2;"><path d="M1061.633,1229.167c123.263,-767.363 1710.071,-1104.167 2364.583,-598.958l-2364.583,598.958Z" style="fill:#515151;fill-rule:nonzero;"/><path d="M8441.842,1208.333c-123.263,-767.363 -1710.071,-1104.167 -2364.583,-598.958l2364.583,598.958Z" style="fill:#515151;fill-rule:nonzero;"/><path d="M4149.304,847.221c-1741.321,5.208 -2272.571,196.179 -2814.238,435.762c-598.958,265.625 -758.679,1265.625 -758.679,1265.625c0,0 -440.104,2388.887 -561.633,3411.458c-121.529,1022.571 538.196,1250 887.154,1296.875c348.958,46.875 810.762,-477.429 1130.208,-1250c319.446,-772.571 682.292,-697.917 682.292,-697.917l2031.25,-6.946l2085.071,6.946c0,0 364.583,-76.388 682.292,697.917c317.708,774.304 781.25,1296.875 1130.208,1250c348.958,-46.875 1009.55,-272.571 888.021,-1296.875c-121.529,-1024.304 -560.762,-3411.458 -560.762,-3411.458c0,0 -159.721,-1000 -758.679,-1265.625c-598.958,-265.625 -1266.492,-470.487 -3480.033,-432.292c-210.071,-1.738 -402.779,-3.471 -583.333,-3.471l0.867,0l-0.004,0Z" style="fill:#515151;fill-rule:nonzero;stroke:#515151;stroke-width:4.17px;"/><path d="M4149.304,550.346c-1742.188,5.208 -2273.438,196.179 -2815.104,435.762c-598.958,265.625 -758.679,1265.625 -758.679,1265.625c0,0 -439.238,2388.887 -560.763,3411.458c-121.529,1022.571 538.196,1250 887.154,1296.875c348.958,46.875 810.763,-477.429 1130.208,-1250c319.446,-772.571 682.292,-697.917 682.292,-697.917l2031.25,-6.946l2085.071,6.946c0,0 364.583,-76.388 682.292,697.917c317.708,774.304 781.25,1296.875 1130.208,1250c348.958,-46.875 1009.55,-272.571 888.021,-1296.875c-121.529,-1024.304 -560.762,-3411.458 -560.762,-3411.458c0,0 -159.721,-1000 -758.679,-1265.625c-598.958,-265.625 -1265.625,-470.487 -3479.167,-432.292c-210.071,-1.738 -402.779,-3.471 -583.333,-3.471l-0.008,0Z" style="fill:#515151;fill-rule:nonzero;"/><path d="M3151.562,3015.625l297.221,0c45.717,0 83.333,37.617 83.333,83.333l0,1197.917c0,45.717 -37.617,83.333 -83.333,83.333l-295.137,0c-45.717,0 -83.333,-37.617 -83.333,-83.333l0,-1197.917c-0.004,-0.35 -0.008,-0.7 -0.008,-1.05c0,-44.754 36.508,-81.721 81.258,-82.283Z" style="fill:#515151;fill-rule:nonzero;"/><path d="M3983.508,3550.346l0,295.138c0,45.717 -37.617,83.333 -83.333,83.333l-1197.917,0c-45.717,0 -83.333,-37.617 -83.333,-83.333l0,-295.138c0,-45.717 37.617,-83.333 83.333,-83.333l1197.917,0c45.717,0 83.333,37.617 83.333,83.333Z" style="fill:#515151;fill-rule:nonzero;"/><circle cx="7276.908" cy="2972.221" r="345.487" style="fill:#515151;"/><circle cx="8020.138" cy="2343.404" r="345.487" style="fill:#515151;"/><circle cx="7276.908" cy="1690.971" r="345.487" style="fill:#515151;"/><circle cx="6540.8" cy="2328.125" r="345.487" style="fill:#515151;"/><path d="M533.854,2480.904c-95.488,529.512 -416.667,2309.029 -519.096,3182.292c-121.529,1022.571 538.196,1250 887.154,1296.875c348.958,46.875 810.763,-477.429 1130.208,-1250c144.096,-347.221 295.138,-524.304 420.138,-611.112c-716.146,-748.263 -1659.721,-2210.071 -1918.404,-2618.054Z" style="fill:url(#_Linear1);fill-rule:nonzero;"/><path d="M9000.867,2477.429c95.488,529.512 416.667,2309.029 519.096,3182.292c121.529,1022.571 -538.196,1250 -887.154,1296.875c-348.958,46.875 -810.762,-477.429 -1130.208,-1250c-144.096,-347.221 -295.137,-524.304 -420.137,-611.112c718.75,-748.263 1659.721,-2210.071 1918.404,-2618.054Z" style="fill:#515151;fill-rule:nonzero;"/><circle cx="2157.117" cy="2309.029" r="852.429" style="fill:#515151;"/><circle cx="2157.292" cy="2309.2" r="670.137" style="fill:#515151;"/><circle cx="5941.842" cy="1645.833" r="189.237" style="fill:#515151;"/><circle cx="5440.8" cy="2338.717" r="269.096" style="fill:#515151;stroke:#515151;stroke-width:30.21px;stroke-linejoin:miter;stroke-miterlimit:15.12;"/><circle cx="5440.45" cy="2362.846" r="189.237" style="fill:#515151;stroke:#515151;stroke-width:17.38px;"/><circle cx="3589.583" cy="1642.362" r="189.238" style="fill:#515151;"/><path d="M3966.146,2168.404l236.113,0c45.717,0 83.333,37.617 83.333,83.333l0,227.429c0,45.717 -37.617,83.333 -83.333,83.333l-236.113,0c-45.717,0 -83.333,-37.617 -83.333,-83.333l0,-227.429c0,-45.717 37.617,-83.333 83.333,-83.333Z" style="fill:#515151;fill-rule:nonzero;"/><circle cx="5990.45" cy="3614.583" r="852.429" style="fill:#515151;"/><circle cx="5990.45" cy="3614.583" r="670.138" style="fill:#515151;"/><path d="M3151.562,2930.554l297.221,0c45.717,0 83.333,37.617 83.333,83.333l0,1197.917c0,45.717 -37.617,83.333 -83.333,83.333l-295.137,0c-45.717,0 -83.333,-37.617 -83.333,-83.333l0,-1197.917c-0.004,-0.35 -0.008,-0.7 -0.008,-1.05c0,-44.754 36.508,-81.721 81.258,-82.283Z" style="fill:#515151;fill-rule:nonzero;"/><path d="M3983.508,3465.279l0,295.137c0,45.717 -37.617,83.333 -83.333,83.333l-1197.917,0c-45.717,0 -83.333,-37.617 -83.333,-83.333l0,-295.137c0,-45.717 37.617,-83.333 83.333,-83.333l1197.917,0c45.717,0 83.333,37.617 83.333,83.333Z" style="fill:#515151;fill-rule:nonzero;"/><path d="M533.854,2480.904c-95.488,529.512 -416.667,2309.029 -519.096,3182.292c-121.529,1022.571 538.196,1250 887.154,1296.875c348.958,46.875 810.763,-477.429 1130.208,-1250c144.096,-347.221 295.138,-524.304 420.138,-611.112c-716.146,-748.263 -1659.721,-2210.071 -1918.404,-2618.054Z" style="fill:#515151;fill-rule:nonzero;"/><path d="M4922.742,1154.513c-0.896,-0.038 -1.792,-0.058 -2.688,-0.058c-33.808,0 -61.633,27.821 -61.633,61.633c0,33.808 27.821,61.633 61.633,61.633c32.546,0 59.767,-25.779 61.542,-58.275l0,-2.429c0.058,-1.071 0.088,-2.142 0.088,-3.212c0,-31.362 -24.846,-57.592 -56.163,-59.288l-2.779,0l0,-0.004Zm-119.792,31.25l0,-295.138c0,-8.679 0,-8.679 8.679,-8.679l92.013,0c73.212,0.962 136.404,53.262 151.042,125c2.025,11.471 3.183,23.079 3.471,34.721l0,289.929c0.371,65.704 -40.746,124.938 -102.429,147.571c-17.342,6.062 -35.471,9.571 -53.821,10.417l-88.542,0c-10.417,0 -10.417,0 -10.417,-10.417l0,-293.404" style="fill:#515151;"/><path d="M4691.842,1440.971l0,-508.679l-83.333,0c-8.717,-0.292 -17.442,0.287 -26.042,1.737c-48.883,9.6 -84.608,52.617 -85.071,102.429l0,300.346c0,29.267 12.671,57.146 34.721,76.388c20.342,18.567 47.121,28.529 74.654,27.779l85.071,0Zm50.346,-255.208l0,295.138c0,6.946 0,8.679 -8.679,8.679l-125,0c-41.346,1.046 -81.421,-14.608 -111.112,-43.404c-22.504,-21.65 -38.196,-49.412 -45.138,-79.863c-2.021,-9.129 -3.183,-18.429 -3.471,-27.779c0,-102.429 -1.737,-203.125 0,-305.554c2.817,-85.062 74.637,-152.979 159.721,-151.042l125,0c8.679,0 8.679,0 8.679,8.679l0,295.138" style="fill:#515151;"/><path d="M4447.05,1696.179l27.779,0c1.837,0.163 3.312,1.633 3.471,3.471c8.679,32.987 17.362,64.237 26.042,98.958c1.758,-3.854 2.929,-7.95 3.471,-12.154c8.679,-29.513 17.363,-57.292 24.304,-86.804c1.737,-3.471 1.737,-5.208 6.946,-5.208l13.888,0c3.775,-0.704 7.525,1.546 8.679,5.208c8.679,29.513 17.363,60.763 26.042,90.279c0,1.737 1.737,3.471 1.737,6.946l5.208,-20.833l20.833,-78.125l3.471,-3.471l27.779,0c-1.737,6.946 -3.471,13.888 -5.208,19.096c-12.154,39.929 -22.571,79.862 -34.721,119.792c-1.738,3.471 -3.471,5.208 -6.946,5.208l-24.304,0c-3.471,0 -5.208,-1.737 -6.946,-5.208c-6.946,-27.779 -15.625,-57.292 -24.304,-85.071c-0.108,-1.338 -0.733,-2.583 -1.738,-3.471c-2.921,7.917 -5.242,16.042 -6.946,24.304c-5.208,20.833 -12.154,43.404 -17.363,64.237c-1.737,3.471 -1.737,5.208 -6.946,5.208l-26.042,0c-3.471,0 -5.208,0 -5.208,-3.471c-12.154,-45.138 -26.042,-90.279 -38.196,-137.154c5.208,1.737 5.208,0 5.208,-1.737" style="fill:#515151;"/><path d="M5098.092,1696.179l0,50.346c0,5.208 1.738,6.946 6.946,6.946l53.821,0c5.208,0 6.946,-1.737 6.946,-6.946l0,-48.612l29.512,0l0,142.362l-29.512,0l0,-55.554l-65.971,0l0,57.292l-27.779,0c-0.838,-1.637 -1.421,-3.396 -1.738,-5.208l0,-133.679c-0.021,-0.183 -0.033,-0.362 -0.033,-0.546c0,-2.387 1.825,-4.413 4.2,-4.663l1.042,0c7.421,-1.533 15.004,-2.117 22.571,-1.737" style="fill:#515151;"/><path d="M4297.742,1828.125c3.471,-6.946 8.679,-15.625 12.154,-22.571c9.087,3.417 18.362,6.312 27.779,8.679c15.329,4.3 31.546,4.3 46.875,0c3.471,0 5.208,-1.737 8.679,-3.471c5.829,-2.929 8.25,-10.113 5.383,-15.971c-1.6,-3.587 -4.958,-6.092 -8.854,-6.596c-10.229,-3.092 -20.675,-5.412 -31.25,-6.946c-15.758,-1.888 -31.046,-6.592 -45.137,-13.888c-15.312,-9.246 -20.388,-29.396 -11.283,-44.792c1.583,-2.767 3.642,-5.233 6.075,-7.292c14.933,-12.838 34.133,-19.65 53.821,-19.096c17.863,0.138 35.542,3.671 52.083,10.417l3.471,1.737c-3.471,8.679 -6.946,15.625 -10.417,24.304c-9.988,-3.946 -20.533,-6.292 -31.25,-6.946c-12.717,-2.033 -25.717,-1.442 -38.196,1.737c-4.938,1.042 -8.55,5.371 -8.679,10.417c0,6.946 3.471,10.417 8.679,10.417c12.154,3.471 22.571,5.208 34.721,8.679c12.154,3.471 22.571,6.946 34.721,10.417c13.629,4.179 22.887,17 22.571,31.25c0.4,15.067 -7.65,29.154 -20.833,36.458c-11.887,6.037 -24.887,9.583 -38.196,10.417c-24.329,1.204 -48.629,-2.942 -71.179,-12.154l-1.737,-5.208" style="fill:#515151;"/><path d="M5035.592,1725.696c-6.946,6.946 -15.625,13.888 -22.571,20.833c-8.333,-14.079 -23.571,-22.692 -39.929,-22.571c-11.879,0.138 -23.188,5.167 -31.25,13.888c-8.246,8.237 -12.883,19.425 -12.883,31.075c0,11.654 4.637,22.842 12.883,31.075c9.512,10.758 24.217,15.437 38.196,12.154c14.188,-1.183 26.742,-9.775 32.988,-22.571c8.679,6.946 15.625,13.888 22.571,19.096c-15.042,24.267 -42.796,37.804 -71.179,34.721c-36.037,-3.467 -65.067,-31.771 -69.446,-67.708c-4.217,-36.504 18.604,-71.1 53.821,-81.596c32.55,-8.804 67.338,3.717 86.804,31.25" style="fill:#515151;"/><path d="M4828.992,1840.279l-31.25,0l0,-112.846l-45.138,0l0,-31.25l121.529,0l0,29.513l-43.404,0c-1.737,39.929 -1.737,76.388 -1.737,114.583" style="fill:#515151;"/><path d="M4716.146,1840.279l-31.25,0l0,-144.096l31.25,0l0,144.096" style="fill:#515151;"/><path d="M5158.854,1597.221c-12.517,0.471 -22.554,10.896 -22.554,23.421c0,12.858 10.579,23.438 23.438,23.438c12.858,0 23.438,-10.579 23.438,-23.438c0,-0.283 -0.004,-0.567 -0.017,-0.85c-0.454,-12.529 -10.887,-22.587 -23.421,-22.587c-0.296,0 -0.588,0.004 -0.883,0.017Zm-39.929,22.571c-0.975,-20.896 15.387,-38.908 36.283,-39.929l3.646,0c21.904,0 39.929,18.025 39.929,39.929c0,21.904 -18.025,39.929 -39.929,39.929c-21.904,0 -39.929,-18.025 -39.929,-39.929" style="fill:#515151;"/><path d="M4921.008,1631.946l0,-48.612l13.888,0c1.737,0 3.471,3.471 3.471,5.208l0,71.179l-13.888,0l-3.471,-3.471c-10.417,-15.625 -22.571,-29.513 -34.721,-46.875l0,50.346l-15.625,0l0,-76.387l13.888,0l3.471,3.471c10.417,13.888 20.833,27.779 31.25,39.929c-1.738,0 -1.738,1.737 1.737,5.208" style="fill:#515151;"/><path d="M4504.342,1581.596l13.888,0c1.737,0 3.471,1.737 5.208,3.471l31.25,41.667l3.471,3.471l0,-38.196c0,-10.417 0,-10.417 10.417,-10.417l5.208,0l0,76.388c-6.946,0 -13.887,1.737 -19.096,-6.946c-8.679,-13.888 -19.096,-26.042 -27.779,-38.196c-1.737,-1.737 -1.737,-3.471 -5.208,-5.208l0,48.612l-1.737,1.737c-13.888,0 -13.888,0 -13.888,-13.888c-1.737,-19.096 -1.737,-39.929 -1.737,-62.5" style="fill:#515151;"/><path d="M4357.638,1581.596l15.625,0l0,76.388l-10.417,0c-2.608,-0.433 -5.029,-1.646 -6.946,-3.471l-31.25,-41.667c-1.738,-1.737 -1.738,-3.471 -5.208,-5.208l0,48.612l-1.737,0c-13.888,0 -13.888,0 -13.888,-13.888l0,-57.292c0,-5.208 1.738,-5.208 5.208,-5.208c6.537,-0.888 12.925,2.663 15.625,8.679c8.679,12.154 19.096,26.042 27.779,38.196c0.942,0.938 1.554,2.158 1.737,3.471c2.979,-16.021 4.146,-32.329 3.471,-48.612" style="fill:#515151;"/><path d="M5014.758,1604.862l0,32.292c0,3.471 1.738,5.208 3.471,5.208l15.625,0c10.492,-1.475 18.538,-10.254 19.096,-20.833c0.142,-10.233 -7.271,-19.129 -17.362,-20.833l-15.625,0c-0.183,-0.021 -0.363,-0.033 -0.546,-0.033c-2.387,0 -4.412,1.825 -4.662,4.2l0.004,0Zm-15.625,53.125l0,-76.388l24.304,0c5.842,-0.292 11.692,0.292 17.363,1.737c18.083,4.121 30.204,21.542 27.779,39.929c-1.792,17.354 -15.633,31.196 -32.988,32.987c-12.087,1.529 -24.279,2.113 -36.458,1.737" style="fill:#515151;"/><path d="M4763.021,1597.221c-1.738,15.625 -1.738,15.625 12.154,15.625l26.042,0l0,13.888l-39.929,0l0,17.362l43.404,0l0,13.888l-59.029,0l0,-76.387l59.029,0l0,12.154l-3.471,1.737l-31.25,0c-2.121,1.183 -4.517,1.783 -6.946,1.737" style="fill:#515151;"/><path d="M4650.175,1598.958l-24.304,0l0,-15.625l64.237,0l0,15.625l-22.571,0l0,59.029l-17.362,0l0,-59.029" style="fill:#515151;"/><path d="M4429.688,1581.596l15.625,0l0,76.388l-15.625,0l0,-76.387" style="fill:#515151;"/><path d="M5240.45,1829.862c0,1.737 -1.737,5.208 -1.737,6.946l-3.471,3.471l-1.738,-3.471c-1.737,-1.737 -1.737,-3.471 -3.471,-6.946c0,3.471 -1.737,6.946 -1.737,10.417l-1.738,0l0,-17.362c3.471,0 3.471,0 8.679,10.417c3.471,-3.471 0,-12.154 8.679,-10.417c1.737,12.154 1.737,17.362 -3.471,19.096l0,-12.154" style="fill:#515151;"/><path d="M5212.675,1826.388l-3.471,0l-1.738,-1.737l3.471,-1.737l8.679,0l3.471,1.737l-3.471,1.737l-3.471,0l0,10.417l-1.738,5.208l-1.737,-3.471l0,-12.154" style="fill:#666;"/><path d="M4542.533,1064.238c0.471,-31.1 26.188,-56.429 57.292,-56.429c31.433,0 57.3,25.867 57.3,57.3c0,0.288 -0.004,0.579 -0.008,0.867l0,0.35c0,30.154 -24.708,55.017 -54.863,55.208l-1.562,0c-0.233,0.004 -0.467,0.004 -0.7,0.004c-30.787,0 -56.217,-25.121 -56.592,-55.908l0,-1.388" style="fill:#515151;"/><path d="M3964.063,2126.738l238.196,0c45.717,0 83.333,37.617 83.333,83.333l0,227.429c0,45.717 -37.617,83.333 -83.333,83.333l-236.113,0c-45.717,0 -83.333,-37.617 -83.333,-83.333l0,-227.429c-0.004,-0.35 -0.008,-0.7 -0.008,-1.05c0,-44.754 36.508,-81.721 81.258,-82.283Z" style="fill:#515151;fill-rule:nonzero;"/><circle cx="4084.2" cy="2323.092" r="125" style="fill:#515151;"/><circle cx="5941.842" cy="1602.258" r="189.237" style="fill:#515151;"/><circle cx="3589.929" cy="1599.825" r="189.238" style="fill:#515151;"/><circle cx="8020.138" cy="2258.333" r="345.487" style="fill:#515151;"/><circle cx="7276.908" cy="2887.154" r="345.487" style="fill:#515151;"/><circle cx="7276.908" cy="1607.638" r="345.487" style="fill:#515151;"/><circle cx="6540.8" cy="2243.054" r="345.487" style="fill:#515151;"/><circle cx="5440.104" cy="2319.446" r="189.237" style="fill:#515151;stroke:#515151;stroke-width:4.17px;"/><path d="M5440.104,2199.654l-125,111.112l43.404,0l0,131.946l166.667,0l0,-131.946l43.404,0l-62.5,-55.554l-65.971,-55.554l-0.004,-0.004Zm-57.292,138.887l57.292,0l0,59.029l-57.292,0l0,-59.029Z" style="fill:#515151;fill-rule:nonzero;stroke:#515151;stroke-width:4.17px;"/><path d="M3502.604,0l675.346,0c100.004,0 182.292,82.287 182.292,182.292l0,53.821c0,100.004 -82.288,182.292 -182.292,182.292l-675.346,0c-100.004,0 -182.292,-82.287 -182.292,-182.292l0,-53.821c0,-100.004 82.287,-182.292 182.292,-182.292Z" style="fill:#515151;fill-rule:nonzero;"/><path d="M5228.3,0l675.346,0c100.004,0 182.292,82.287 182.292,182.292l0,53.821c0,100.004 -82.287,182.292 -182.292,182.292l-675.346,0c-100.004,0 -182.292,-82.287 -182.292,-182.292l0,-53.821c0,-100.004 82.288,-182.292 182.292,-182.292Z" style="fill:#515151;fill-rule:nonzero;"/><text x="1144.487px" y="3247.345px" style="font-family:'ArialMT', 'Arial', sans-serif;font-size:1200px;fill:#fff;">Disconnected</text><defs><linearGradient id="_Linear1" x1="0" y1="0" x2="1" y2="0" gradientUnits="userSpaceOnUse" gradientTransform="matrix(-439.485225,3183.522988,-3183.522988,-439.485225,1563.502325,4233.406488)"><stop offset="0" style="stop-color:#4d4d4d;stop-opacity:1"/><stop offset="1" style="stop-color:#333;stop-opacity:1"/></linearGradient></defs></svg>