<?xml version="1.0" encoding="UTF-8" standalone="no"?><!DOCTYPE svg PUBLIC "-//W3C//DTD SVG 1.1//EN" "http://www.w3.org/Graphics/SVG/1.1/DTD/svg11.dtd"><svg width="100%" height="100%" viewBox="0 0 2292 1743" version="1.1" xmlns="http://www.w3.org/2000/svg" xmlns:xlink="http://www.w3.org/1999/xlink" xml:space="preserve" xmlns:serif="http://www.serif.com/" style="fill-rule:evenodd;clip-rule:evenodd;stroke-miterlimit:15.12;"><path d="M254.792,295c29.583,-184.167 410.417,-265 567.5,-143.75l-567.5,143.75Z" style="fill:#7d0000;fill-rule:nonzero;"/><path d="M2026.042,290c-29.583,-184.167 -410.417,-265 -567.5,-143.75l567.5,143.75Z" style="fill:#7d0000;fill-rule:nonzero;"/><path d="M995.833,203.333c-417.917,1.25 -545.417,47.083 -675.417,104.583c-143.75,63.75 -182.083,303.75 -182.083,303.75c0,0 -105.625,573.333 -134.792,818.75c-29.167,245.417 129.167,300 212.917,311.25c83.75,11.25 194.583,-114.583 271.25,-300c76.667,-185.417 163.75,-167.5 163.75,-167.5l487.5,-1.667l500.417,1.667c0,0 87.5,-18.333 163.75,167.5c76.25,185.833 187.5,311.25 271.25,300c83.75,-11.25 242.292,-65.417 213.125,-311.25c-29.167,-245.833 -134.583,-818.75 -134.583,-818.75c0,0 -38.333,-240 -182.083,-303.75c-143.75,-63.75 -303.958,-112.917 -835.208,-103.75c-50.417,-0.417 -96.667,-0.833 -140,-0.833l0.208,0Z" style="fill:#fff;fill-rule:nonzero;"/><path d="M995.833,132.083c-418.125,1.25 -545.625,47.083 -675.625,104.583c-143.75,63.75 -182.083,303.75 -182.083,303.75c0,0 -105.417,573.333 -134.583,818.75c-29.167,245.417 129.167,300 212.917,311.25c83.75,11.25 194.583,-114.583 271.25,-300c76.667,-185.417 163.75,-167.5 163.75,-167.5l487.5,-1.667l500.417,1.667c0,0 87.5,-18.333 163.75,167.5c76.25,185.833 187.5,311.25 271.25,300c83.75,-11.25 242.292,-65.417 213.125,-311.25c-29.167,-245.833 -134.583,-818.75 -134.583,-818.75c0,0 -38.333,-240 -182.083,-303.75c-143.75,-63.75 -303.75,-112.917 -835,-103.75c-50.417,-0.417 -96.667,-0.833 -140,-0.833Z" style="fill:#c90000;fill-rule:nonzero;"/><path d="M756.375,723.75l71.333,0c10.972,0 20,9.028 20,20l0,287.5c0,10.972 -9.028,20 -20,20l-70.833,0c-10.972,0 -20,-9.028 -20,-20l0,-287.5c-0.001,-0.084 -0.002,-0.168 -0.002,-0.252c0,-10.741 8.762,-19.613 19.502,-19.748Z" style="fill-rule:nonzero;"/><path d="M956.042,852.083l0,70.833c0,10.972 -9.028,20 -20,20l-287.5,0c-10.972,0 -20,-9.028 -20,-20l0,-70.833c0,-10.972 9.028,-20 20,-20l287.5,0c10.972,0 20,9.028 20,20Z" style="fill-rule:nonzero;"/><circle cx="1746.458" cy="713.333" r="82.917"/><circle cx="1924.833" cy="562.417" r="82.917"/><circle cx="1746.458" cy="405.833" r="82.917"/><circle cx="1569.792" cy="558.75" r="82.917"/><path d="M128.125,595.417c-22.917,127.083 -100,554.167 -124.583,763.75c-29.167,245.417 129.167,300 212.917,311.25c83.75,11.25 194.583,-114.583 271.25,-300c34.583,-83.333 70.833,-125.833 100.833,-146.667c-171.875,-179.583 -398.333,-530.417 -460.417,-628.333Z" style="fill:url(#_Linear1);fill-rule:nonzero;"/><path d="M2160.208,594.583c22.917,127.083 100,554.167 124.583,763.75c29.167,245.417 -129.167,300 -212.917,311.25c-83.75,11.25 -194.583,-114.583 -271.25,-300c-34.583,-83.333 -70.833,-125.833 -100.833,-146.667c172.5,-179.583 398.333,-530.417 460.417,-628.333Z" style="fill:#c90000;fill-rule:nonzero;"/><circle cx="517.708" cy="554.167" r="204.583" style="fill:#8e0000;"/><circle cx="517.75" cy="554.208" r="160.833" style="fill:#d02f2f;"/><circle cx="1426.042" cy="395" r="45.417" style="fill:#e24949;"/><circle cx="1305.792" cy="561.292" r="64.583" style="fill:#b34747;stroke:#ff3939;stroke-width:7.25px;"/><circle cx="1305.708" cy="567.083" r="45.417" style="fill:#ce7676;stroke:#f26f6f;stroke-width:4.17px;stroke-linejoin:round;stroke-miterlimit:2;"/><circle cx="861.5" cy="394.167" r="45.417" style="fill:#e24949;"/><path d="M951.875,520.417l56.667,0c10.972,0 20,9.028 20,20l0,54.583c0,10.972 -9.028,20 -20,20l-56.667,0c-10.972,0 -20,-9.028 -20,-20l0,-54.583c0,-10.972 9.028,-20 20,-20Z" style="fill:#e24949;fill-rule:nonzero;"/><circle cx="1437.708" cy="867.5" r="204.583" style="fill:#b64444;"/><circle cx="1437.708" cy="867.5" r="160.833" style="fill:#e24949;"/><path d="M756.375,703.333l71.333,0c10.972,0 20,9.028 20,20l0,287.5c0,10.972 -9.028,20 -20,20l-70.833,0c-10.972,0 -20,-9.028 -20,-20l0,-287.5c-0.001,-0.084 -0.002,-0.168 -0.002,-0.252c0,-10.741 8.762,-19.613 19.502,-19.748Z" style="fill:#e41b1b;fill-rule:nonzero;"/><path d="M956.042,831.667l0,70.833c0,10.972 -9.028,20 -20,20l-287.5,0c-10.972,0 -20,-9.028 -20,-20l0,-70.833c0,-10.972 9.028,-20 20,-20l287.5,0c10.972,0 20,9.028 20,20Z" style="fill:#e41b1b;fill-rule:nonzero;"/><path d="M128.125,595.417c-22.917,127.083 -100,554.167 -124.583,763.75c-29.167,245.417 129.167,300 212.917,311.25c83.75,11.25 194.583,-114.583 271.25,-300c34.583,-83.333 70.833,-125.833 100.833,-146.667c-171.875,-179.583 -398.333,-530.417 -460.417,-628.333Z" style="fill:#c90000;fill-rule:nonzero;"/><path d="M1181.458,277.083c-0.215,-0.009 -0.43,-0.014 -0.645,-0.014c-8.114,0 -14.792,6.677 -14.792,14.792c0,8.114 6.677,14.792 14.792,14.792c7.811,0 14.344,-6.187 14.77,-13.986l0,-0.583c0.014,-0.257 0.021,-0.514 0.021,-0.771c0,-7.527 -5.963,-13.822 -13.479,-14.229l-0.667,0Zm-28.75,7.5l0,-70.833c0,-2.083 0,-2.083 2.083,-2.083l22.083,0c17.571,0.231 32.737,12.783 36.25,30c0.486,2.753 0.764,5.539 0.833,8.333l0,69.583c0.089,15.769 -9.779,29.985 -24.583,35.417c-4.162,1.455 -8.513,2.297 -12.917,2.5l-21.25,0c-2.5,0 -2.5,0 -2.5,-2.5l0,-70.417" style="fill:#fff;"/><path d="M1126.042,345.833l0,-122.083l-20,0c-2.092,-0.07 -4.186,0.069 -6.25,0.417c-11.732,2.304 -20.306,12.628 -20.417,24.583l0,72.083c0,7.024 3.041,13.715 8.333,18.333c4.882,4.456 11.309,6.847 17.917,6.667l20.417,0Zm12.083,-61.25l0,70.833c0,1.667 0,2.083 -2.083,2.083l-30,0c-9.923,0.251 -19.541,-3.506 -26.667,-10.417c-5.401,-5.196 -9.167,-11.859 -10.833,-19.167c-0.485,-2.191 -0.764,-4.423 -0.833,-6.667c0,-24.583 -0.417,-48.75 0,-73.333c0.676,-20.415 17.913,-36.715 38.333,-36.25l30,0c2.083,0 2.083,0 2.083,2.083l0,70.833" style="fill:#fff;"/><path d="M1067.292,407.083l6.667,0c0.441,0.039 0.795,0.392 0.833,0.833c2.083,7.917 4.167,15.417 6.25,23.75c0.422,-0.925 0.703,-1.908 0.833,-2.917c2.083,-7.083 4.167,-13.75 5.833,-20.833c0.417,-0.833 0.417,-1.25 1.667,-1.25l3.333,0c0.906,-0.169 1.806,0.371 2.083,1.25c2.083,7.083 4.167,14.583 6.25,21.667c0,0.417 0.417,0.833 0.417,1.667l1.25,-5l5,-18.75l0.833,-0.833l6.667,0c-0.417,1.667 -0.833,3.333 -1.25,4.583c-2.917,9.583 -5.417,19.167 -8.333,28.75c-0.417,0.833 -0.833,1.25 -1.667,1.25l-5.833,0c-0.833,0 -1.25,-0.417 -1.667,-1.25c-1.667,-6.667 -3.75,-13.75 -5.833,-20.417c-0.026,-0.321 -0.176,-0.62 -0.417,-0.833c-0.701,1.9 -1.258,3.85 -1.667,5.833c-1.25,5 -2.917,10.417 -4.167,15.417c-0.417,0.833 -0.417,1.25 -1.667,1.25l-6.25,0c-0.833,0 -1.25,0 -1.25,-0.833c-2.917,-10.833 -6.25,-21.667 -9.167,-32.917c1.25,0.417 1.25,0 1.25,-0.417" style="fill:#fff;"/><path d="M1223.542,407.083l0,12.083c0,1.25 0.417,1.667 1.667,1.667l12.917,0c1.25,0 1.667,-0.417 1.667,-1.667l0,-11.667l7.083,0l0,34.167l-7.083,0l0,-13.333l-15.833,0l0,13.75l-6.667,0c-0.201,-0.393 -0.341,-0.815 -0.417,-1.25l0,-32.083c-0.005,-0.044 -0.008,-0.087 -0.008,-0.131c0,-0.573 0.438,-1.059 1.008,-1.119l0.25,0c1.781,-0.368 3.601,-0.508 5.417,-0.417" style="fill:#fff;"/><path d="M1031.458,438.75c0.833,-1.667 2.083,-3.75 2.917,-5.417c2.181,0.82 4.407,1.515 6.667,2.083c3.679,1.032 7.571,1.032 11.25,0c0.833,0 1.25,-0.417 2.083,-0.833c1.399,-0.703 1.98,-2.427 1.292,-3.833c-0.384,-0.861 -1.19,-1.462 -2.125,-1.583c-2.455,-0.742 -4.962,-1.299 -7.5,-1.667c-3.782,-0.453 -7.451,-1.582 -10.833,-3.333c-3.675,-2.219 -4.893,-7.055 -2.708,-10.75c0.38,-0.664 0.874,-1.256 1.458,-1.75c3.584,-3.081 8.192,-4.716 12.917,-4.583c4.287,0.033 8.53,0.881 12.5,2.5l0.833,0.417c-0.833,2.083 -1.667,3.75 -2.5,5.833c-2.397,-0.947 -4.928,-1.51 -7.5,-1.667c-3.052,-0.488 -6.172,-0.346 -9.167,0.417c-1.185,0.25 -2.052,1.289 -2.083,2.5c0,1.667 0.833,2.5 2.083,2.5c2.917,0.833 5.417,1.25 8.333,2.083c2.917,0.833 5.417,1.667 8.333,2.5c3.271,1.003 5.493,4.08 5.417,7.5c0.096,3.616 -1.836,6.997 -5,8.75c-2.853,1.449 -5.973,2.3 -9.167,2.5c-5.839,0.289 -11.671,-0.706 -17.083,-2.917l-0.417,-1.25" style="fill:#fff;"/><path d="M1208.542,414.167c-1.667,1.667 -3.75,3.333 -5.417,5c-2,-3.379 -5.657,-5.446 -9.583,-5.417c-2.851,0.033 -5.565,1.24 -7.5,3.333c-1.979,1.977 -3.092,4.662 -3.092,7.458c0,2.797 1.113,5.482 3.092,7.458c2.283,2.582 5.812,3.705 9.167,2.917c3.405,-0.284 6.418,-2.346 7.917,-5.417c2.083,1.667 3.75,3.333 5.417,4.583c-3.61,5.824 -10.271,9.073 -17.083,8.333c-8.649,-0.832 -15.616,-7.625 -16.667,-16.25c-1.012,-8.761 4.465,-17.064 12.917,-19.583c7.812,-2.113 16.161,0.892 20.833,7.5" style="fill:#fff;"/><path d="M1158.958,441.667l-7.5,0l0,-27.083l-10.833,0l0,-7.5l29.167,0l0,7.083l-10.417,0c-0.417,9.583 -0.417,18.333 -0.417,27.5" style="fill:#fff;"/><path d="M1131.875,441.667l-7.5,0l0,-34.583l7.5,0l0,34.583" style="fill:#fff;"/><path d="M1238.125,383.333c-3.004,0.113 -5.413,2.615 -5.413,5.621c0,3.086 2.539,5.625 5.625,5.625c3.086,0 5.625,-2.539 5.625,-5.625c0,-0.068 -0.001,-0.136 -0.004,-0.204c-0.109,-3.007 -2.613,-5.421 -5.621,-5.421c-0.071,0 -0.141,0.001 -0.212,0.004Zm-9.583,5.417c-0.234,-5.015 3.693,-9.338 8.708,-9.583l0.875,-0c5.257,0 9.583,4.326 9.583,9.583c0,5.257 -4.326,9.583 -9.583,9.583c-5.257,0 -9.583,-4.326 -9.583,-9.583" style="fill:#fff;"/><path d="M1181.042,391.667l0,-11.667l3.333,0c0.417,0 0.833,0.833 0.833,1.25l0,17.083l-3.333,0l-0.833,-0.833c-2.5,-3.75 -5.417,-7.083 -8.333,-11.25l0,12.083l-3.75,0l0,-18.333l3.333,0l0.833,0.833c2.5,3.333 5,6.667 7.5,9.583c-0.417,0 -0.417,0.417 0.417,1.25" style="fill:#fff;"/><path d="M1081.042,379.583l3.333,0c0.417,0 0.833,0.417 1.25,0.833l7.5,10l0.833,0.833l0,-9.167c0,-2.5 0,-2.5 2.5,-2.5l1.25,0l0,18.333c-1.667,0 -3.333,0.417 -4.583,-1.667c-2.083,-3.333 -4.583,-6.25 -6.667,-9.167c-0.417,-0.417 -0.417,-0.833 -1.25,-1.25l0,11.667l-0.417,0.417c-3.333,0 -3.333,0 -3.333,-3.333c-0.417,-4.583 -0.417,-9.583 -0.417,-15" style="fill:#fff;"/><path d="M1045.833,379.583l3.75,0l0,18.333l-2.5,0c-0.626,-0.104 -1.207,-0.395 -1.667,-0.833l-7.5,-10c-0.417,-0.417 -0.417,-0.833 -1.25,-1.25l0,11.667l-0.417,0c-3.333,0 -3.333,0 -3.333,-3.333l0,-13.75c0,-1.25 0.417,-1.25 1.25,-1.25c1.569,-0.213 3.102,0.639 3.75,2.083c2.083,2.917 4.583,6.25 6.667,9.167c0.226,0.225 0.373,0.518 0.417,0.833c0.715,-3.845 0.995,-7.759 0.833,-11.667" style="fill:#fff;"/><path d="M1203.542,385.167l0,7.75c0,0.833 0.417,1.25 0.833,1.25l3.75,0c2.518,-0.354 4.449,-2.461 4.583,-5c0.034,-2.456 -1.745,-4.591 -4.167,-5l-3.75,0c-0.044,-0.005 -0.087,-0.008 -0.131,-0.008c-0.573,0 -1.059,0.438 -1.119,1.008Zm-3.75,12.75l0,-18.333l5.833,0c1.402,-0.07 2.806,0.07 4.167,0.417c4.34,0.989 7.249,5.17 6.667,9.583c-0.43,4.165 -3.752,7.487 -7.917,7.917c-2.901,0.367 -5.827,0.507 -8.75,0.417" style="fill:#fff;"/><path d="M1143.125,383.333c-0.417,3.75 -0.417,3.75 2.917,3.75l6.25,0l0,3.333l-9.583,0l0,4.167l10.417,0l0,3.333l-14.167,0l0,-18.333l14.167,0l0,2.917l-0.833,0.417l-7.5,0c-0.509,0.284 -1.084,0.428 -1.667,0.417" style="fill:#fff;"/><path d="M1116.042,383.75l-5.833,0l0,-3.75l15.417,0l0,3.75l-5.417,0l0,14.167l-4.167,0l0,-14.167" style="fill:#fff;"/><path d="M1063.125,379.583l3.75,0l0,18.333l-3.75,0l0,-18.333" style="fill:#fff;"/><path d="M1257.708,439.167c0,0.417 -0.417,1.25 -0.417,1.667l-0.833,0.833l-0.417,-0.833c-0.417,-0.417 -0.417,-0.833 -0.833,-1.667c0,0.833 -0.417,1.667 -0.417,2.5l-0.417,0l0,-4.167c0.833,0 0.833,0 2.083,2.5c0.833,-0.833 0,-2.917 2.083,-2.5c0.417,2.917 0.417,4.167 -0.833,4.583l0,-2.917" style="fill:#666;"/><path d="M1251.042,438.333l-0.833,0l-0.417,-0.417l0.833,-0.417l2.083,0l0.833,0.417l-0.833,0.417l-0.833,0l0,2.5l-0.417,1.25l-0.417,-0.833l0,-2.917" style="fill:#666;"/><path d="M1090.208,255.417c0.113,-7.464 6.285,-13.543 13.75,-13.543c7.544,0 13.752,6.208 13.752,13.752c0,0.069 -0.001,0.139 -0.002,0.208c0,0.028 0,0.056 0,0.084c0,7.237 -5.93,13.204 -13.167,13.25l-0.375,0c-0.056,0.001 -0.112,0.001 -0.168,0.001c-7.389,0 -13.492,-6.029 -13.582,-13.418l-0,-0.333" style="fill:#fff;"/><path d="M951.375,510.417l57.167,-0c10.972,0 20,9.028 20,20l0,54.583c0,10.972 -9.028,20 -20,20l-56.667,0c-10.972,0 -20,-9.028 -20,-20l0,-54.583c-0.001,-0.084 -0.002,-0.168 -0.002,-0.252c0,-10.741 8.762,-19.613 19.502,-19.748Z" style="fill:#f00;fill-rule:nonzero;"/><circle cx="980.208" cy="557.542" r="30" style="fill:#b60e0e;"/><circle cx="1426.042" cy="384.542" r="45.417" style="fill:#f00;"/><circle cx="861.583" cy="383.958" r="45.417" style="fill:#f00;"/><circle cx="1924.833" cy="542" r="82.917"/><circle cx="1746.458" cy="692.917" r="82.917"/><circle cx="1746.458" cy="385.833" r="82.917"/><circle cx="1569.792" cy="538.333" r="82.917"/><circle cx="1305.625" cy="556.667" r="45.417" style="fill:#f00;"/><path d="M1305.625,527.917l-30,26.667l10.417,0l0,31.667l40,0l0,-31.667l10.417,0l-15,-13.333l-15.833,-13.333Zm-13.75,33.333l13.75,0l0,14.167l-13.75,0l0,-14.167Z" style="fill:#b60e0e;fill-rule:nonzero;"/><path d="M840.625,0l162.083,0c24.001,-0 43.75,19.749 43.75,43.75l0,12.917c0,24.001 -19.749,43.75 -43.75,43.75l-162.083,0c-24.001,0 -43.75,-19.749 -43.75,-43.75l0,-12.917c0,-24.001 19.749,-43.75 43.75,-43.75Z" style="fill:#7d0000;fill-rule:nonzero;"/><path d="M1254.792,0l162.083,0c24.001,-0 43.75,19.749 43.75,43.75l0,12.917c0,24.001 -19.749,43.75 -43.75,43.75l-162.083,0c-24.001,0 -43.75,-19.749 -43.75,-43.75l0,-12.917c0,-24.001 19.749,-43.75 43.75,-43.75Z" style="fill:#7d0000;fill-rule:nonzero;"/><defs><linearGradient id="_Linear1" x1="0" y1="0" x2="1" y2="0" gradientUnits="userSpaceOnUse" gradientTransform="matrix(-105.476454,764.045517,-764.045517,-105.476454,375.240558,1016.017557)"><stop offset="0" style="stop-color:#4d4d4d;stop-opacity:1"/><stop offset="1" style="stop-color:#333;stop-opacity:1"/></linearGradient></defs></svg>