<?xml version="1.0" encoding="UTF-8" standalone="no"?><!DOCTYPE svg PUBLIC "-//W3C//DTD SVG 1.1//EN" "http://www.w3.org/Graphics/SVG/1.1/DTD/svg11.dtd"><svg width="100%" height="100%" viewBox="0 0 485 236" version="1.1" xmlns="http://www.w3.org/2000/svg" xmlns:xlink="http://www.w3.org/1999/xlink" xml:space="preserve" xmlns:serif="http://www.serif.com/" style="fill-rule:evenodd;clip-rule:evenodd;stroke-linejoin:round;stroke-miterlimit:2;"><path d="M464.167,0l-87.917,0l0,110.833l88.333,0c10.972,0 20,-9.028 20,-20l0,-70.833c-0.437,-10.957 -9.453,-19.789 -20.417,-20Z" style="fill-rule:nonzero;"/><path id="path4391-0" d="M408.333,28.333l47.5,27.5l-47.5,27.5l0,-55Z" style="fill:#f00;fill-rule:nonzero;"/><path d="M125,89.375c-0,10.972 9.028,20 20,20l70.833,-0c10.972,0 20,-9.028 20,-20l0,-87.917l-110.833,0l0,87.917Z" style="fill-rule:nonzero;"/><path id="path4391-7" d="M207.5,33.542l-27.5,47.5l-27.5,-47.5l55,0Z" style="fill:#f00;fill-rule:nonzero;"/><path d="M110.833,21.25c0,-10.972 -9.028,-20 -20,-20l-70.833,0c-10.972,0 -20,9.028 -20,20l0,88.333l110.833,0l0,-88.333Z" style="fill-rule:nonzero;"/><path id="path4391" d="M28.333,77.083l27.5,-47.5l27.5,47.5l-55,0Z" style="fill:#f00;fill-rule:nonzero;"/><path d="M269.167,0c-10.972,0 -20,9.028 -20,20l0,70.833c0,10.972 9.028,20 20,20l88.333,-0l0,-110.833l-88.333,0Z" style="fill-rule:nonzero;"/><path id="path4391-6" d="M325,82.5l-47.5,-27.5l47.5,-27.5l0,55Z" style="fill:#f00;fill-rule:nonzero;"/><path d="M464.167,125l-87.917,0l0,110.833l88.333,0c10.972,0 20,-9.028 20,-20l0,-70.833c-0.437,-10.957 -9.453,-19.789 -20.417,-20Z" style="fill:#615e5e;fill-rule:nonzero;"/><path id="path4391-0-2" d="M408.333,153.333l47.5,27.5l-47.5,27.5l0,-55Z" style="fill:#d14c4c;fill-rule:nonzero;"/><path d="M125,214.375c-0,10.972 9.028,20 20,20l70.833,0c10.972,0 20,-9.028 20,-20l0,-87.917l-110.833,0l0,87.917Z" style="fill:#535353;fill-rule:nonzero;"/><path id="path4391-7-2" d="M207.5,158.542l-27.5,47.5l-27.5,-47.5l55,0Z" style="fill:#d14c4c;fill-rule:nonzero;"/><path d="M110.833,146.25c0,-10.972 -9.028,-20 -20,-20l-70.833,0c-10.972,0 -20,9.028 -20,20l0,88.333l110.833,0l0,-88.333Z" style="fill:#515151;fill-rule:nonzero;"/><path id="path4391-2" d="M28.333,202.083l27.5,-47.5l27.5,47.5l-55,0Z" style="fill:#d14c4c;fill-rule:nonzero;"/><path d="M269.167,125c-10.972,0 -20,9.028 -20,20l0,70.833c0,10.972 9.028,20 20,20l88.333,0l0,-110.833l-88.333,0Z" style="fill:#565656;fill-rule:nonzero;"/><path id="path4391-6-2" d="M325,207.5l-47.5,-27.5l47.5,-27.5l0,55Z" style="fill:#d14c4c;fill-rule:nonzero;"/></svg>