<?xml version="1.0" encoding="UTF-8" standalone="no"?><!DOCTYPE svg PUBLIC "-//W3C//DTD SVG 1.1//EN" "http://www.w3.org/Graphics/SVG/1.1/DTD/svg11.dtd"><svg width="100%" height="100%" viewBox="0 0 192 184" version="1.1" xmlns="http://www.w3.org/2000/svg" xmlns:xlink="http://www.w3.org/1999/xlink" xml:space="preserve" xmlns:serif="http://www.serif.com/" style="fill-rule:evenodd;clip-rule:evenodd;stroke-linejoin:round;stroke-miterlimit:2;"><circle id="path4096-29" cx="146.25" cy="45.417" r="45.417"/><g id="text4641"><path id="path4731" d="M141.667,20.417l0,20.417l-20.417,0l0,9.167l20.417,0l0,20.417l9.167,0l0,-20.417l20.417,0l0,-9.167l-20.417,0l0,-20.417l-9.167,0Z" style="fill:#f00;fill-rule:nonzero;"/></g><circle id="path4096-2-3-3" cx="45.417" cy="45.417" r="45.417"/><rect id="rect4661" x="20.417" y="40.833" width="50" height="9.167" style="fill:#f00;"/><circle id="path4096-2-3-3-2" cx="45.417" cy="137.917" r="45.417" style="fill:#5b5b5b;"/><rect id="rect4661-2" x="20.417" y="133.333" width="50" height="9.167" style="fill:#b45050;"/><circle id="path4096-29-2" cx="146.25" cy="137.917" r="45.417" style="fill:#6e6e6e;"/><g id="text4641-2"><path id="path4731-2" d="M141.667,112.917l0,20.417l-20.417,0l0,9.167l20.417,0l0,20.417l9.167,0l0,-20.417l20.417,0l0,-9.167l-20.417,0l0,-20.417l-9.167,0Z" style="fill:#b45050;fill-rule:nonzero;"/></g></svg>