<?xml version="1.0" encoding="UTF-8" standalone="no"?><!DOCTYPE svg PUBLIC "-//W3C//DTD SVG 1.1//EN" "http://www.w3.org/Graphics/SVG/1.1/DTD/svg11.dtd"><svg width="100%" height="100%" viewBox="0 0 563 271" version="1.1" xmlns="http://www.w3.org/2000/svg" xmlns:xlink="http://www.w3.org/1999/xlink" xml:space="preserve" xmlns:serif="http://www.serif.com/" style="fill-rule:evenodd;clip-rule:evenodd;stroke-linejoin:round;stroke-miterlimit:2;"><circle cx="427.083" cy="135.417" r="122.917" style="fill:#f00;stroke:#f00;stroke-width:4.17px;"/><path d="M427.083,25c60.573,-0 110.417,49.844 110.417,110.417c0,60.573 -49.844,110.417 -110.417,110.417c-60.573,0 -110.417,-49.844 -110.417,-110.417c-0,-0.014 -0,-0.028 -0,-0.042c0,-60.55 49.825,-110.375 110.375,-110.375c0.014,0 0.028,0 0.042,0m0,-25c-74.287,0 -135.417,61.129 -135.417,135.417c0,74.287 61.129,135.417 135.417,135.417c74.287,0 135.417,-61.129 135.417,-135.417c0,-74.287 -61.129,-135.417 -135.417,-135.417Z" style="fill:#f00;fill-rule:nonzero;"/><circle cx="135.417" cy="135.417" r="122.917" style="fill:#600;"/><path d="M135.417,25c60.573,-0 110.417,49.844 110.417,110.417c0,60.573 -49.844,110.417 -110.417,110.417c-60.573,0 -110.417,-49.844 -110.417,-110.417c-0,-0.014 -0,-0.028 -0,-0.042c-0,-60.55 49.825,-110.375 110.375,-110.375c0.014,0 0.028,0 0.042,0m0,-25c-74.287,0 -135.417,61.129 -135.417,135.417c0,74.287 61.129,135.417 135.417,135.417c74.287,0 135.417,-61.129 135.417,-135.417c0,-74.287 -61.129,-135.417 -135.417,-135.417Z" style="fill:#600;fill-rule:nonzero;"/><circle cx="427.083" cy="135.417" r="83.333" style="fill:#f00;stroke:#f00;stroke-width:16.67px;stroke-linejoin:miter;stroke-miterlimit:10;"/><circle cx="135.417" cy="135.417" r="83.333" style="fill:#600;stroke:#600;stroke-width:16.67px;stroke-linejoin:miter;stroke-miterlimit:10;"/></svg>