<?xml version="1.0" encoding="UTF-8" standalone="no"?><!DOCTYPE svg PUBLIC "-//W3C//DTD SVG 1.1//EN" "http://www.w3.org/Graphics/SVG/1.1/DTD/svg11.dtd"><svg width="100%" height="100%" viewBox="0 0 542 226" version="1.1" xmlns="http://www.w3.org/2000/svg" xmlns:xlink="http://www.w3.org/1999/xlink" xml:space="preserve" xmlns:serif="http://www.serif.com/" style="fill-rule:evenodd;clip-rule:evenodd;stroke-linejoin:round;stroke-miterlimit:2;"><path id="rect4773" d="M249.542,168.75l0,12.833c0,24.146 -19.604,43.75 -43.75,43.75l-162.042,0c-24.146,0 -43.75,-19.604 -43.75,-43.75l0,-12.833c0,-24.146 19.604,-43.75 43.75,-43.75l162.042,0c24.146,0 43.75,19.604 43.75,43.75Z" style="fill:#474747;"/><path id="rect4773-8" d="M335.167,0l162.333,-0c0.028,-0 0.056,-0 0.083,-0c23.901,-0 43.579,19.641 43.625,43.542l0,13.042c0,0.042 0,0.083 0,0.125c0,23.885 -19.615,43.556 -43.5,43.625l-162.292,0c-0.042,0 -0.083,0 -0.125,0c-23.885,0 -43.556,-19.615 -43.625,-43.5l0,-13.083c-0,-0.042 -0,-0.083 -0,-0.125c0,-23.885 19.615,-43.556 43.5,-43.625Z" style="fill-rule:nonzero;"/><path id="rect4773-2" d="M249.542,43.75l0,12.833c0,24.146 -19.604,43.75 -43.75,43.75l-162.042,0c-24.146,0 -43.75,-19.604 -43.75,-43.75l0,-12.833c0,-24.146 19.604,-43.75 43.75,-43.75l162.042,0c24.146,0 43.75,19.604 43.75,43.75Z"/><path d="M78.5,21.292l45.333,0l0,5.958l-36.333,45.208l37.5,0l0,6.708l-47.417,0l0,-6.083l36.5,-45.208l-35.583,0l0,-6.583Z" style="fill:#f00;fill-rule:nonzero;"/><path d="M136.042,21.292l7.792,0l0,51.167l28.125,0l0,6.708l-35.917,0l0,-57.875Z" style="fill:#f00;fill-rule:nonzero;"/><path d="M365.625,21.292l45.333,0l0,5.958l-36.458,45.208l37.5,0l0,6.708l-47.25,0l0,-6.083l36.5,-45.208l-35.625,0l0,-6.583Z" style="fill:#f00;fill-rule:nonzero;"/><path d="M450.542,51.958c1.926,0.761 3.621,2.01 4.917,3.625c1.888,2.353 3.483,4.928 4.75,7.667l7.917,15.792l-8.333,0l-7.375,-14.833c-1.221,-2.954 -3.12,-5.58 -5.542,-7.667c-2.187,-1.382 -4.75,-2.052 -7.333,-1.917l-8.333,0l0,24.542l-7.833,0l0,-57.875l17.667,-0c5.252,-0.387 10.477,1.089 14.75,4.167c3.446,3.202 5.243,7.811 4.875,12.5c0.117,3.205 -0.772,6.367 -2.542,9.042c-1.848,2.511 -4.542,4.272 -7.583,4.958Zm-19.542,-24.25l0,20.5l9.833,0c2.997,0.168 5.957,-0.75 8.333,-2.583c2.028,-2.031 3.078,-4.845 2.875,-7.708c0.212,-2.839 -0.841,-5.632 -2.875,-7.625c-2.377,-1.834 -5.336,-2.751 -8.333,-2.583l-9.833,0Z" style="fill:#f00;fill-rule:nonzero;"/><path d="M78.5,146.292l45.333,0l0,5.958l-36.333,45.208l37.5,0l0,6.708l-47.417,0l0,-6.083l36.5,-45.208l-35.583,0l0,-6.583Z" style="fill:#c45858;fill-rule:nonzero;"/><path d="M136.042,146.292l7.792,0l0,51.167l28.125,0l0,6.708l-35.917,0l0,-57.875Z" style="fill:#c45858;fill-rule:nonzero;"/><path id="rect4773-8-2" d="M335.167,125l162.333,0c0.028,-0 0.056,-0 0.083,-0c23.901,0 43.579,19.641 43.625,43.542l0,13.042c0,0.042 0,0.083 0,0.125c0,23.885 -19.615,43.556 -43.5,43.625l-162.292,0c-0.042,0 -0.083,0 -0.125,0c-23.885,0 -43.556,-19.615 -43.625,-43.5l0,-13.083c-0,-0.042 -0,-0.083 -0,-0.125c0,-23.885 19.615,-43.556 43.5,-43.625Z" style="fill:#474747;fill-rule:nonzero;"/><path d="M365.625,146.292l45.333,0l0,5.958l-36.458,45.208l37.5,0l0,6.708l-47.25,0l0,-6.083l36.5,-45.208l-35.625,0l0,-6.583Z" style="fill:#c45858;fill-rule:nonzero;"/><path d="M450.542,176.958c1.926,0.761 3.621,2.01 4.917,3.625c1.888,2.353 3.483,4.928 4.75,7.667l7.917,15.792l-8.333,0l-7.375,-14.833c-1.221,-2.954 -3.12,-5.58 -5.542,-7.667c-2.187,-1.382 -4.75,-2.052 -7.333,-1.917l-8.333,0l0,24.542l-7.833,0l0,-57.875l17.667,0c5.252,-0.387 10.477,1.089 14.75,4.167c3.446,3.202 5.243,7.811 4.875,12.5c0.117,3.205 -0.772,6.367 -2.542,9.042c-1.848,2.511 -4.542,4.272 -7.583,4.958Zm-19.542,-24.25l0,20.5l9.833,0c2.997,0.168 5.957,-0.75 8.333,-2.583c2.028,-2.031 3.078,-4.845 2.875,-7.708c0.212,-2.839 -0.841,-5.632 -2.875,-7.625c-2.377,-1.834 -5.336,-2.751 -8.333,-2.583l-9.833,-0Z" style="fill:#c45858;fill-rule:nonzero;"/></svg>